<?xml version="1.0" encoding="utf-8"?>
<!-- Generator: Adobe Illustrator 25.4.1, SVG Export Plug-In . SVG Version: 6.00 Build 0)  -->
<svg version="1.1" id="Layer_1" xmlns="http://www.w3.org/2000/svg" xmlns:xlink="http://www.w3.org/1999/xlink" x="0px" y="0px"
	 viewBox="0 0 8 9" style="enable-background:new 0 0 8 9;" xml:space="preserve">
<path d="M8,4.8C7.8,4.9,7.7,4.9,7.6,4.9H1.7l1.9,2C3.8,7,3.8,7.1,3.8,7.3c0,0.1-0.1,0.3-0.1,0.4C3.6,7.8,3.5,7.8,3.2,7.8
	c-0.1,0-0.3-0.1-0.4-0.1l-2.7-3c0-0.1-0.1-0.2-0.1-0.3S0.2,4.1,0.2,4l2.9-2.8c0.1-0.1,0.2-0.1,0.3-0.1c0.1,0,0.3,0.1,0.4,0.1
	c0.1,0.1,0.1,0.2,0.1,0.4c0,0.1-0.1,0.3-0.1,0.4l-2,1.9h5.8C7.7,3.9,7.9,4,8,4c0,0.2,0.1,0.3,0.1,0.4C8.1,4.6,8,4.7,8,4.8z"/>
</svg>
