<?xml version="1.0" encoding="utf-8"?>
<!-- Generator: Adobe Illustrator 25.4.1, SVG Export Plug-In . SVG Version: 6.00 Build 0)  -->
<svg version="1.1" id="Layer_1" xmlns="http://www.w3.org/2000/svg" xmlns:xlink="http://www.w3.org/1999/xlink" x="0px" y="0px"
	 viewBox="0 0 17 17" style="enable-background:new 0 0 17 17;" xml:space="preserve">
<style type="text/css">
	.st0{clip-path:url(#SVGID_00000100366953185801638080000005016271675159949192_);}
	.st1{fill-rule:evenodd;clip-rule:evenodd;}
</style>
<g>
	<defs>
		<rect id="SVGID_1_" x="0.5" y="0.5" width="16" height="16"/>
	</defs>
	<clipPath id="SVGID_00000084503042609360006410000017028345945885068966_">
		<use xlink:href="#SVGID_1_"  style="overflow:visible;"/>
	</clipPath>
	<g style="clip-path:url(#SVGID_00000084503042609360006410000017028345945885068966_);">
		<path class="st1" d="M2.5,1.5C2.2,1.5,2,1.6,1.8,1.8C1.6,2,1.5,2.2,1.5,2.5v12c0,0.3,0.1,0.5,0.3,0.7c0.2,0.2,0.4,0.3,0.7,0.3h12
			c0.3,0,0.5-0.1,0.7-0.3s0.3-0.4,0.3-0.7v-12c0-0.3-0.1-0.5-0.3-0.7c-0.2-0.2-0.4-0.3-0.7-0.3H2.5z M2.5,16.5c-0.5,0-1-0.2-1.4-0.6
			c-0.4-0.4-0.6-0.9-0.6-1.4l0-12c0-0.5,0.2-1,0.6-1.4C1.5,0.7,2,0.5,2.5,0.5l12,0c0.5,0,1,0.2,1.4,0.6c0.4,0.4,0.6,0.9,0.6,1.4v12
			c0,0.5-0.2,1-0.6,1.4c-0.4,0.4-0.9,0.6-1.4,0.6H2.5z M5.6,10.6c-0.1,0.1-0.1,0.2-0.1,0.4s0.1,0.3,0.1,0.4c0.1,0.1,0.2,0.1,0.4,0.1
			s0.3-0.1,0.4-0.1l4.1-4.1V10c0,0.1,0.1,0.3,0.1,0.4c0.1,0.1,0.2,0.1,0.4,0.1s0.3-0.1,0.4-0.1c0.1-0.1,0.1-0.2,0.1-0.4v-4
			c0-0.1-0.1-0.3-0.1-0.4c-0.1-0.1-0.2-0.1-0.4-0.1H7c-0.1,0-0.3,0.1-0.4,0.1C6.5,5.8,6.5,5.9,6.5,6.1c0,0.1,0.1,0.3,0.1,0.4
			C6.7,6.5,6.8,6.6,7,6.6h2.8L5.6,10.6z"/>
	</g>
</g>
</svg>
