<?xml version="1.0" encoding="utf-8"?>
<!-- Generator: Adobe Illustrator 25.4.1, SVG Export Plug-In . SVG Version: 6.00 Build 0)  -->
<svg version="1.1" id="Layer_1" xmlns="http://www.w3.org/2000/svg" xmlns:xlink="http://www.w3.org/1999/xlink" x="0px" y="0px"
	 viewBox="0 0 8 9" style="enable-background:new 0 0 8 9;" xml:space="preserve">
<path d="M4.4,0.6C4.5,0.7,4.5,0.9,4.5,1l0,5.8l2-1.9c0.1-0.1,0.2-0.1,0.4-0.1c0.1,0,0.3,0.1,0.4,0.1c0.1,0.1,0.1,0.2,0.1,0.4
	c0,0.1-0.1,0.3-0.1,0.4L4.3,8.4C4.2,8.4,4.1,8.5,4,8.5c-0.1,0-0.3-0.1-0.4-0.1L0.8,5.5C0.7,5.4,0.7,5.3,0.7,5.2
	c0-0.1,0.1-0.3,0.1-0.4c0.1-0.1,0.2-0.1,0.4-0.1c0.1,0,0.3,0.1,0.4,0.1l1.9,2l0-5.8c0-0.1,0.1-0.3,0.1-0.4C3.8,0.6,3.9,0.5,4,0.5
	C4.2,0.5,4.3,0.6,4.4,0.6z"/>
</svg>
