<?xml version="1.0" encoding="utf-8"?>
<!-- Generator: Adobe Illustrator 25.4.1, SVG Export Plug-In . SVG Version: 6.00 Build 0)  -->
<svg version="1.1" id="Layer_1" xmlns="http://www.w3.org/2000/svg" xmlns:xlink="http://www.w3.org/1999/xlink" x="0px" y="0px"
	 viewBox="0 0 8 9" style="enable-background:new 0 0 8 9;" xml:space="preserve">
<path d="M0.2,4.2c0.1-0.1,0.3-0.1,0.4-0.1h5.8L4.5,2C4.4,2,4.4,1.9,4.4,1.6c0-0.1,0.1-0.3,0.1-0.4c0.1-0.1,0.2-0.1,0.4-0.1
	c0.1,0,0.3,0.1,0.4,0.1l2.7,3c0,0.1,0.1,0.2,0.1,0.3S7.9,4.8,7.9,5L5.1,7.8C5,7.8,4.9,7.8,4.8,7.8c-0.1,0-0.3-0.1-0.4-0.1
	C4.2,7.7,4.2,7.6,4.2,7.3c0-0.1,0.1-0.3,0.1-0.4l2-1.9H0.5C0.4,5.1,0.2,5,0.1,5c0-0.2-0.1-0.3-0.1-0.4C0.1,4.4,0.2,4.2,0.2,4.2z"/>
</svg>
