<?xml version="1.0" encoding="utf-8"?>
<!-- Generator: Adobe Illustrator 25.4.1, SVG Export Plug-In . SVG Version: 6.00 Build 0)  -->
<svg version="1.1" id="Layer_1" xmlns="http://www.w3.org/2000/svg" xmlns:xlink="http://www.w3.org/1999/xlink" x="0px" y="0px"
	 viewBox="0 0 32 32" style="enable-background:new 0 0 32 32;" xml:space="preserve">
<style type="text/css">
	.st0{fill:none;stroke:#000000;stroke-width:2;stroke-linecap:round;stroke-linejoin:round;}
</style>
<path class="st0" d="M28,21.3V10.7c0-0.5-0.1-0.9-0.4-1.3c-0.2-0.4-0.6-0.7-1-1L17.3,3c-0.4-0.2-0.9-0.4-1.3-0.4S15.1,2.8,14.7,3
	L5.3,8.4c-0.4,0.2-0.7,0.6-1,1C4.1,9.7,4,10.2,4,10.7v10.7c0,0.5,0.1,0.9,0.4,1.3c0.2,0.4,0.6,0.7,1,1l9.3,5.3
	c0.4,0.2,0.9,0.4,1.3,0.4s0.9-0.1,1.3-0.4l9.3-5.3c0.4-0.2,0.7-0.6,1-1C27.9,22.3,28,21.8,28,21.3z"/>
<path class="st0" d="M4.4,9.3L16,16l11.6-6.7"/>
<path class="st0" d="M16,29.4V16"/>
</svg>
