<?xml version="1.0" encoding="utf-8"?>
<!-- Generator: Adobe Illustrator 25.4.1, SVG Export Plug-In . SVG Version: 6.00 Build 0)  -->
<svg version="1.1" id="Layer_1" xmlns="http://www.w3.org/2000/svg" xmlns:xlink="http://www.w3.org/1999/xlink" x="0px" y="0px"
	 viewBox="0 0 35 35" style="enable-background:new 0 0 35 35;" xml:space="preserve">
<path d="M25.2,29.7l-2.8-2.8l-1.5,1.5l4.4,4.4l7.7-7.7l-1.5-1.5L25.2,29.7z"/>
<path d="M12,9.8c0.6,0,1.1-0.5,1.1-1.1S12.6,7.7,12,7.7c-0.6,0-1.1,0.5-1.1,1.1S11.4,9.8,12,9.8z"/>
<path d="M12,18.6c0.6,0,1.1-0.5,1.1-1.1s-0.5-1.1-1.1-1.1c-0.6,0-1.1,0.5-1.1,1.1S11.4,18.6,12,18.6z"/>
<path d="M12,27.3c0.6,0,1.1-0.5,1.1-1.1s-0.5-1.1-1.1-1.1c-0.6,0-1.1,0.5-1.1,1.1S11.4,27.3,12,27.3z"/>
<path d="M26.2,3.3H8.8c-0.6,0-1.1,0.2-1.5,0.6c-0.4,0.4-0.6,1-0.6,1.5v24.1c0,0.6,0.2,1.1,0.6,1.5c0.4,0.4,1,0.6,1.5,0.6h8.8v-2.2
	H8.8V23h19.7V5.5c0-0.6-0.2-1.1-0.6-1.5C27.4,3.5,26.8,3.3,26.2,3.3z M26.2,20.8H8.8v-6.6h17.5V20.8z M26.2,12H8.8V5.5h17.5V12z"/>
</svg>
