<?xml version="1.0" encoding="utf-8"?>
<!-- Generator: Adobe Illustrator 25.4.1, SVG Export Plug-In . SVG Version: 6.00 Build 0)  -->
<svg version="1.1" id="Layer_1" xmlns="http://www.w3.org/2000/svg" xmlns:xlink="http://www.w3.org/1999/xlink" x="0px" y="0px"
	 viewBox="0 0 34 40" style="enable-background:new 0 0 34 40;" xml:space="preserve">
<path d="M0,10c0,0,0-5,4.2-5h25.5c0,0,4.2,0,4.2,5v15c0,0,0,5-4.2,5h-8.5c0,1.7,0.2,2.9,0.5,3.8h1.6c0.3,0,0.6,0.1,0.8,0.4
	c0.2,0.2,0.3,0.6,0.3,0.9s-0.1,0.6-0.3,0.9c-0.2,0.2-0.5,0.4-0.8,0.4H10.6c-0.3,0-0.6-0.1-0.8-0.4c-0.2-0.2-0.3-0.6-0.3-0.9
	s0.1-0.6,0.3-0.9c0.2-0.2,0.5-0.4,0.8-0.4h1.6c0.4-0.8,0.5-2.1,0.5-3.8H4.2c0,0-4.2,0-4.2-5V10z M3,7.9C2.7,8.1,2.6,8.3,2.4,8.6
	C2.2,9.1,2.1,9.5,2.1,10v15c0,0.8,0.2,1.3,0.3,1.5c0.1,0.3,0.4,0.5,0.6,0.6c0.4,0.2,0.7,0.3,1.1,0.4l0.1,0h25.5
	c0.7,0,1.1-0.2,1.3-0.4c0.2-0.2,0.4-0.5,0.5-0.8c0.2-0.4,0.3-0.9,0.3-1.3l0-0.1V10c0-0.8-0.2-1.3-0.3-1.5c-0.2-0.3-0.4-0.5-0.6-0.6
	c-0.4-0.2-0.8-0.3-1.2-0.4H4.2C3.6,7.5,3.2,7.7,3,7.9L3,7.9z"/>
</svg>
