<?xml version="1.0" encoding="utf-8"?>
<!-- Generator: Adobe Illustrator 25.4.1, SVG Export Plug-In . SVG Version: 6.00 Build 0)  -->
<svg version="1.1" id="Layer_1" xmlns="http://www.w3.org/2000/svg" xmlns:xlink="http://www.w3.org/1999/xlink" x="0px" y="0px"
	 viewBox="0 0 60 60" style="enable-background:new 0 0 60 60;" xml:space="preserve">
<style type="text/css">
	.st0{clip-path:url(#SVGID_00000031175514126321380650000017645568988753268374_);}
</style>
<g>
	<defs>
		<rect id="SVGID_1_" width="60" height="60"/>
	</defs>
	<clipPath id="SVGID_00000163759354922184365340000005681748309790123177_">
		<use xlink:href="#SVGID_1_"  style="overflow:visible;"/>
	</clipPath>
	<g style="clip-path:url(#SVGID_00000163759354922184365340000005681748309790123177_);">
		<path d="M11.4,0h0.9c0.4,0.3,1,0.6,1.3,1c2.6,3.5,5.2,7.1,7.8,10.6c0.9,1.2,1.7,2.3,2.6,3.6c0.2-0.2,0.3-0.4,0.4-0.5
			c1.3-1.7,2.5-3.5,3.8-5.2c0.3-0.4,0.7-0.7,1.2-0.9c1-0.3,1.8,0.1,2.4,1c1.4,2,2.9,4,4.3,5.9l3.2,4.5c0.1-0.1,0.2-0.2,0.3-0.2
			c3-2.2,6.1-4.4,9.1-6.6c0.3-0.2,0.6-0.4,1-0.6c1.1-0.5,2.3,0,2.6,1.3c0.2,0.7,0.3,1.4,0.5,2.1c1.9,8.7,3.9,17.4,5.8,26
			c0.5,2.2,1,4.4,1.5,6.6c-0.1,0.1-0.2,0.1-0.3,0.2L32.9,59.4c-2.1,0.8-4.1,0.8-6.1-0.1c-7.6-3.1-15.1-6.2-22.7-9.2
			c-1.3-0.5-2.6-1.1-4-1.6l30.5-21.9l-7.5-10l-23,31.5c0-0.1,0-0.2,0-0.3c1.1-5.2,2.2-10.3,3.3-15.5C5.6,22.2,7.8,12.1,9.9,1.9
			C10.1,1,10.5,0.3,11.4,0z"/>
	</g>
</g>
</svg>
