<?xml version="1.0" encoding="utf-8"?>
<!-- Generator: Adobe Illustrator 25.4.1, SVG Export Plug-In . SVG Version: 6.00 Build 0)  -->
<svg version="1.1" id="Layer_1" xmlns="http://www.w3.org/2000/svg" xmlns:xlink="http://www.w3.org/1999/xlink" x="0px" y="0px"
	 viewBox="0 0 19 18" style="enable-background:new 0 0 19 18;" xml:space="preserve">
<style type="text/css">
	.st0{fill:none;stroke:#000000;stroke-width:2;stroke-linecap:round;stroke-linejoin:round;}
</style>
<path class="st0" d="M13.2,1.5H5.8C3.7,1.5,2,3.2,2,5.2v7.5c0,2.1,1.7,3.8,3.8,3.8h7.5c2.1,0,3.8-1.7,3.8-3.8V5.2
	C17,3.2,15.3,1.5,13.2,1.5z"/>
<path class="st0" d="M12.5,8.5c0.1,0.6,0,1.3-0.3,1.8c-0.3,0.6-0.8,1-1.3,1.3c-0.6,0.3-1.2,0.4-1.8,0.3c-0.6-0.1-1.2-0.4-1.6-0.8
	c-0.4-0.4-0.7-1-0.8-1.6c-0.1-0.6,0-1.3,0.3-1.8s0.7-1,1.3-1.3C8.7,6,9.3,5.9,10,6c0.6,0.1,1.2,0.4,1.7,0.8S12.4,7.9,12.5,8.5z"/>
<path class="st0" d="M13.6,4.9L13.6,4.9"/>
</svg>