<?xml version="1.0" encoding="utf-8"?>
<!-- Generator: Adobe Illustrator 25.4.1, SVG Export Plug-In . SVG Version: 6.00 Build 0)  -->
<svg version="1.1" id="Layer_1" xmlns="http://www.w3.org/2000/svg" xmlns:xlink="http://www.w3.org/1999/xlink" x="0px" y="0px"
	 viewBox="0 0 17 16" style="enable-background:new 0 0 17 16;" xml:space="preserve">
<style type="text/css">
	.st0{clip-path:url(#SVGID_00000169536353797193085040000015191225117239348121_);}
</style>
<g>
	<defs>
		<rect id="SVGID_1_" x="0.5" width="16" height="16"/>
	</defs>
	<clipPath id="SVGID_00000044865698115276954070000005459420133040515753_">
		<use xlink:href="#SVGID_1_"  style="overflow:visible;"/>
	</clipPath>
	<g style="clip-path:url(#SVGID_00000044865698115276954070000005459420133040515753_);">
		<path d="M14.1,13.6h-2.4V9.9c0-0.9,0-2-1.2-2c-1.2,0-1.4,1-1.4,2v3.8H6.7V6H9v1h0c0.3-0.6,1.1-1.2,2.2-1.2c2.4,0,2.8,1.6,2.8,3.6
			L14.1,13.6L14.1,13.6z M4.1,5c-0.2,0-0.4,0-0.5-0.1C3.4,4.8,3.2,4.7,3.1,4.6C3,4.4,2.9,4.3,2.8,4.1C2.7,3.9,2.7,3.8,2.7,3.6
			c0-0.3,0.1-0.5,0.2-0.8c0.2-0.2,0.4-0.4,0.6-0.5c0.3-0.1,0.5-0.1,0.8-0.1C4.6,2.3,4.8,2.4,5,2.6C5.2,2.8,5.4,3,5.4,3.3
			c0.1,0.3,0,0.5-0.1,0.8C5.2,4.4,5,4.6,4.8,4.7C4.6,4.9,4.3,5,4.1,5z M5.2,13.6H2.9V6h2.4V13.6z M15.3,0H1.7C1,0,0.5,0.5,0.5,1.2
			v13.7C0.5,15.5,1,16,1.7,16h13.6c0.7,0,1.2-0.5,1.2-1.2V1.2C16.5,0.5,16,0,15.3,0L15.3,0z"/>
	</g>
</g>
</svg>
