<?xml version="1.0" encoding="utf-8"?>
<!-- Generator: Adobe Illustrator 25.4.1, SVG Export Plug-In . SVG Version: 6.00 Build 0)  -->
<svg version="1.1" id="Layer_1" xmlns="http://www.w3.org/2000/svg" xmlns:xlink="http://www.w3.org/1999/xlink" x="0px" y="0px"
	 viewBox="0 0 60 54" style="enable-background:new 0 0 60 54;" xml:space="preserve">
<style type="text/css">
	.st0{clip-path:url(#SVGID_00000106848585743343536130000013245745523922217895_);}
</style>
<g>
	<defs>
		<rect id="SVGID_1_" y="0.4" width="60" height="53.6"/>
	</defs>
	<clipPath id="SVGID_00000103974898644966584220000004698486564023764883_">
		<use xlink:href="#SVGID_1_"  style="overflow:visible;"/>
	</clipPath>
	<g style="clip-path:url(#SVGID_00000103974898644966584220000004698486564023764883_);">
		<path d="M41.7,0.4h1.1c0.1,0,0.3,0.1,0.4,0.1c1.8,0.3,3,1.3,3.8,2.8c0.8,1.5,1.2,3.2,1.3,5c0.2,2.3-0.1,4.6-0.5,6.9
			c-0.1,0.7-0.3,1.3-0.4,2c0,0,0,0,0,0c0.1,0,0.3,0.1,0.4,0.1c2.5,0.8,4.9,1.7,7.2,3.1c1.4,0.9,2.7,1.9,3.7,3.2
			c1.6,2.2,1.7,4.5,0.2,6.7c-0.8,1.1-1.7,2.1-2.8,2.8c-2.1,1.5-4.4,2.6-6.9,3.5c-0.5,0.2-1.1,0.4-1.6,0.5c0,0,0,0,0,0.1
			c0.1,0.3,0.2,0.7,0.2,1c0.6,3,0.9,5.9,0.5,8.9c-0.2,1.3-0.6,2.6-1.2,3.8c-0.7,1.3-1.8,2.2-3.2,2.6c-0.4,0.1-0.7,0.2-1.1,0.2h-1.1
			c-0.3,0-0.6-0.1-0.8-0.1c-1.5-0.3-3-0.9-4.4-1.6c-2.2-1.2-4.1-2.7-5.9-4.4c-0.1-0.1-0.2-0.2-0.4-0.3l-0.3,0.3
			c-2,1.9-4.1,3.5-6.6,4.8c-1.7,0.8-3.4,1.4-5.3,1.5c-2.2,0-3.8-0.9-4.9-2.8c-0.9-1.5-1.2-3.2-1.3-5c-0.2-2.5,0.1-5,0.6-7.4
			c0.1-0.5,0.2-0.9,0.3-1.4l-0.2-0.1c-2.7-0.8-5.3-1.9-7.7-3.5c-1.4-1-2.7-2.1-3.7-3.5c-1.4-2.1-1.4-4.2,0-6.3c0.8-1.2,1.8-2.2,3-3
			c2.1-1.5,4.5-2.6,7-3.4c0.5-0.2,1-0.3,1.6-0.5c0-0.1,0-0.2,0-0.2c-0.7-3-1.1-6-0.9-9.1c0.1-1.3,0.4-2.6,0.9-3.9
			c1-2.4,2.9-3.6,5.4-3.5c1.3,0.1,2.5,0.4,3.7,0.9C24,2.3,26.1,3.6,28,5.2c0.7,0.6,1.3,1.2,2,1.8l0.3-0.3c1.5-1.5,3.2-2.8,5-3.9
			c1.5-0.9,3.1-1.7,4.8-2.2C40.6,0.5,41.1,0.5,41.7,0.4z M29.9,36.9c1.7-0.1,3.6-0.1,5.4-0.2c0.1,0,0.1,0,0.2-0.1
			c0,0,0.1-0.1,0.1-0.1c1.9-2.9,3.7-6,5.2-9.1c0-0.1,0.1-0.1,0.1-0.2c0-0.1,0-0.1-0.1-0.2c-1.5-3.1-3.3-6.1-5.2-9
			c-0.1-0.1-0.1-0.2-0.2-0.2c-0.1-0.1-0.2-0.1-0.3-0.1c-0.8,0-1.6-0.1-2.4-0.1c-2.6-0.1-5.3-0.1-7.9,0.1c-0.1,0-0.2,0-0.3,0.1
			s-0.1,0.1-0.2,0.2c-2,2.9-3.7,6-5.2,9.1c0,0.1-0.1,0.1-0.1,0.2c0,0.1,0,0.1,0.1,0.2c1.5,3.2,3.3,6.2,5.3,9.1
			c0,0.1,0.1,0.1,0.1,0.2c0.1,0,0.1,0.1,0.2,0.1C26.5,36.8,28.2,36.9,29.9,36.9z M13.3,19.6c-0.1,0-0.1,0-0.2,0
			c-1.1,0.4-2.2,0.7-3.2,1.1c-1.8,0.7-3.5,1.6-5,2.8C4,24.3,3.3,25,2.8,26c-0.2,0.4-0.3,0.9-0.2,1.3c0.2,1.2,0.9,2.4,1.9,3.1
			c2.1,1.7,4.5,3.1,7.1,3.9c0.5,0.2,1.1,0.3,1.6,0.5c0,0,0-0.1,0.1-0.1c0.8-2.6,1.8-5.1,2.9-7.5c0-0.1,0-0.2,0-0.3
			c-0.6-1.6-1.3-3.2-1.9-4.8C13.9,21.4,13.6,20.5,13.3,19.6z M15.1,38c0,0.1-0.1,0.2-0.1,0.3c-0.3,1.4-0.6,2.8-0.7,4.2
			c-0.2,1.7-0.2,3.4,0.1,5.1c0.2,1,0.5,1.9,1.1,2.7c0.3,0.4,0.6,0.6,1,0.8c1.1,0.3,2.2,0.3,3.2,0c1.8-0.7,3.6-1.6,5.2-2.7
			c1.2-0.9,2.3-1.8,3.4-2.9c-0.5-0.5-1-1.1-1.4-1.6c-1.2-1.5-2.4-3.1-3.6-4.6c-0.1-0.1-0.2-0.1-0.3-0.2c-0.2,0-0.3,0-0.5-0.1
			c-1.8-0.2-3.6-0.5-5.4-0.7C16.5,38.3,15.8,38.2,15.1,38z M31.9,45.6c0.8,0.7,1.7,1.5,2.5,2.2c1.6,1.3,3.4,2.4,5.3,3.2
			c0.8,0.3,1.7,0.5,2.6,0.5c0.5,0,1.1-0.1,1.5-0.5c0.7-0.6,1.2-1.3,1.5-2.1c0.4-1.1,0.5-2.2,0.5-3.3c0.1-2.1,0-4.1-0.5-6.1
			c-0.1-0.5-0.2-1-0.3-1.5c-0.9,0.2-1.8,0.4-2.7,0.5c-1.7,0.3-3.5,0.5-5.2,0.7c-0.1,0-0.2,0-0.2,0.1c-0.1,0-0.1,0.1-0.2,0.2
			c-1.1,1.4-2.1,2.8-3.2,4.2C33.1,44.3,32.5,44.9,31.9,45.6z M15.1,16.5c2.5-0.6,5.1-1,7.7-1.2c0.1,0,0.2,0,0.3-0.1
			c0.1-0.1,0.2-0.1,0.2-0.2c1.4-2,3-3.9,4.6-5.8c0.1-0.1,0.2-0.2,0.3-0.3c0-0.1-0.1-0.1-0.1-0.1c-1.3-1.2-2.7-2.4-4.2-3.3
			c-1.4-0.9-2.9-1.7-4.5-2.2c-0.5-0.1-1-0.2-1.5-0.2c-1.4-0.1-2.3,0.5-2.9,1.8c-0.5,1.2-0.7,2.5-0.8,3.7c-0.1,2.1,0.1,4.1,0.5,6.2
			C14.8,15.3,15,15.9,15.1,16.5z M44.9,16.5c0-0.1,0.1-0.2,0.1-0.2c0.6-2.8,1-5.6,0.7-8.4c-0.1-1.1-0.4-2.2-0.9-3.2
			c-0.7-1.3-1.7-1.9-3.2-1.7c-1.2,0.2-2.4,0.6-3.4,1.1c-2.1,1.1-4,2.6-5.8,4.2c-0.2,0.2-0.4,0.4-0.6,0.6l0.3,0.4
			c1.6,1.8,3.1,3.7,4.5,5.6c0.1,0.1,0.2,0.2,0.3,0.3c0.1,0.1,0.3,0.1,0.4,0.1c2,0.2,4.1,0.5,6.1,0.9L44.9,16.5z M46.8,34.8
			C46.9,34.8,46.9,34.8,46.8,34.8c2.6-0.8,5-1.8,7.2-3.2c1-0.6,1.9-1.5,2.7-2.5c0.4-0.5,0.6-1.1,0.7-1.7c0.1-0.9-0.3-1.6-0.8-2.3
			c-0.7-0.9-1.6-1.6-2.6-2.2c-2.2-1.4-4.6-2.4-7.2-3.1c0,0-0.1,0-0.1,0c0,0,0,0.1,0,0.1c-0.8,2.5-1.7,4.9-2.8,7.3c0,0.1,0,0.2,0,0.4
			c0.7,1.6,1.4,3.2,2,4.7C46.2,33,46.5,33.9,46.8,34.8z M44.4,35.4c-0.6-1.8-1.2-3.5-2-5.3l-3.5,6.2C40.7,36.2,42.5,35.9,44.4,35.4z
			 M30.1,43.8c1.3-1.4,2.4-2.8,3.5-4.4h-7.2L30.1,43.8z M15.7,35.5c1.8,0.4,3.7,0.7,5.5,0.9l-3.6-6.2C17,32,16.4,33.8,15.7,35.5
			L15.7,35.5z M33.5,15c-1.1-1.5-2.3-2.9-3.5-4.3c-1.3,1.4-2.4,2.8-3.5,4.3H33.5z M42.4,24.2c0.6-1.7,1.3-3.4,1.9-5.2l-5.5-1
			L42.4,24.2z M17.7,24.2l3.5-6.1c-1.8,0.2-3.6,0.5-5.4,0.9C16.4,20.7,17,22.4,17.7,24.2L17.7,24.2z"/>
		<path d="M30,32.5c-1.1,0-2.1-0.3-3-0.9c-0.9-0.6-1.6-1.4-2-2.4c-0.4-1-0.5-2.1-0.3-3.1s0.7-2,1.5-2.7c0.7-0.7,1.7-1.3,2.7-1.5
			c1-0.2,2.1-0.1,3.1,0.3c1,0.4,1.8,1.1,2.4,2c0.6,0.9,0.9,1.9,0.9,3c0,1.4-0.6,2.8-1.6,3.8C32.8,32,31.4,32.5,30,32.5z"/>
	</g>
</g>
</svg>
