<?xml version="1.0" encoding="utf-8"?>
<!-- Generator: Adobe Illustrator 25.4.1, SVG Export Plug-In . SVG Version: 6.00 Build 0)  -->
<svg version="1.1" id="Layer_1" xmlns="http://www.w3.org/2000/svg" xmlns:xlink="http://www.w3.org/1999/xlink" x="0px" y="0px"
	 viewBox="0 0 50 57" style="enable-background:new 0 0 50 57;" xml:space="preserve">
<style type="text/css">
	.st0{clip-path:url(#SVGID_00000151508927803326913850000004551920770758257598_);}
</style>
<g>
	<defs>
		<rect id="SVGID_1_" y="0.8" width="50" height="56.2"/>
	</defs>
	<clipPath id="SVGID_00000077300170765779577260000002331450205198594218_">
		<use xlink:href="#SVGID_1_"  style="overflow:visible;"/>
	</clipPath>
	<g style="clip-path:url(#SVGID_00000077300170765779577260000002331450205198594218_);">
		<path d="M15.2,51.8c0.4-0.2,0.7-0.3,0.9-0.4c0.7-0.3,1.4-0.5,2.1-0.9c0.7-0.4,1.2-0.3,1.8,0.1c1.4,0.9,2.8,1.7,4.2,2.6
			c0.5,0.3,0.9,0.3,1.5,0c6.6-3.8,13.2-7.6,19.8-11.4c0.6-0.3,0.8-0.7,0.8-1.4c0-7.6,0-15.2,0-22.8c0-0.7-0.2-1.1-0.8-1.4
			c-6.6-3.8-13.1-7.5-19.6-11.3c-0.6-0.4-1.1-0.3-1.7,0c-6.5,3.8-13,7.5-19.5,11.2c-0.6,0.4-0.9,0.8-0.9,1.5c0,7.6,0,15.1,0,22.7
			c0,0.7,0.2,1.1,0.8,1.4c1.7,0.9,3.3,1.9,5,2.9c0.9,0.5,1.8,0.8,2.8,0.6c1.5-0.3,2.3-1.2,2.3-2.7c0-4.5,0-9,0-13.5
			c0-3.1,0-6.2,0-9.4c0-0.9,0.2-1.1,1.1-1.1c0.7,0,1.3,0,2,0c0.5,0,0.8,0.3,0.8,0.8c0,0.2,0,0.4,0,0.6c0,7.5,0,14.9,0,22.4
			c0,0.9-0.1,1.9-0.3,2.8c-0.8,2.9-3.4,4.5-6.7,4c-1.4-0.2-2.8-0.8-4.1-1.4c-1.7-0.8-3.3-1.8-4.9-2.8c-1.5-0.9-2.4-2.2-2.4-4
			c0-0.3,0-0.6,0-0.9c0-7.4,0-14.7,0-22c0-2.3,0.9-3.9,2.9-5.1C9.4,9.1,15.8,5.3,22.2,1.6c1.9-1.1,3.7-1.1,5.6,0
			C34.3,5.4,40.9,9.2,47.5,13c1.7,1,2.5,2.4,2.5,4.3c0,7.7,0,15.5,0,23.2c0,1.9-0.9,3.3-2.5,4.3c-6.6,3.8-13.1,7.6-19.7,11.4
			c-1.8,1-3.6,1.1-5.4,0c-2.1-1.3-4.2-2.5-6.3-3.7C15.8,52.2,15.5,52,15.2,51.8z"/>
		<path d="M31.6,40.6c-2.4,0-4.6-0.2-6.7-1c-2.7-1.1-4.2-3.1-4.4-6c-0.1-1,0.2-1.2,1.1-1.2c0.7,0,1.3-0.1,2,0c0.3,0,0.7,0.3,0.7,0.5
			c0.3,2.8,2.1,3.8,4.6,4c2.1,0.2,4.2,0.3,6.3-0.3c1.1-0.3,1.9-0.8,2.3-1.9c0.5-1.4,0.1-2.5-1.3-2.9c-1.5-0.4-3.1-0.7-4.6-1
			c-1.9-0.3-3.8-0.6-5.7-0.9c-0.3-0.1-0.5-0.1-0.7-0.2c-2.1-0.7-3.6-2-3.8-4.4c-0.3-2.5,0.5-4.6,2.7-6c1.4-0.9,3-1.3,4.7-1.5
			c2.6-0.2,5.2-0.2,7.7,0.8c2.9,1,4.2,3.2,4.5,6.2c0.1,0.6-0.2,0.9-0.8,0.9c-0.2,0-0.4,0-0.6,0c-1.4,0.2-2.5,0-2.8-1.8
			c-0.3-1.2-1.4-1.9-2.6-2.1c-2.1-0.5-4.3-0.5-6.4,0c-1.4,0.3-2.2,1.1-2.3,2.3c-0.1,1.1,0.2,1.7,1.2,2c1.4,0.4,2.9,0.6,4.3,0.9
			c2.1,0.4,4.1,0.7,6.2,1.1c0.1,0,0.3,0.1,0.4,0.1c2.3,0.7,4,2,4.3,4.6c0.2,2.7-0.6,4.9-2.9,6.3c-1.6,1-3.4,1.4-5.3,1.6
			C32.7,40.6,32,40.6,31.6,40.6z"/>
	</g>
</g>
</svg>
