<?xml version="1.0" encoding="utf-8"?>
<!-- Generator: Adobe Illustrator 25.4.1, SVG Export Plug-In . SVG Version: 6.00 Build 0)  -->
<svg version="1.1" id="Layer_1" xmlns="http://www.w3.org/2000/svg" xmlns:xlink="http://www.w3.org/1999/xlink" x="0px" y="0px"
	 viewBox="0 0 60 61" style="enable-background:new 0 0 60 61;" xml:space="preserve">
<style type="text/css">
	.st0{clip-path:url(#SVGID_00000076563411111889089900000006638750206901954225_);}
</style>
<g>
	<defs>
		<rect id="SVGID_1_" y="1" width="60" height="60"/>
	</defs>
	<clipPath id="SVGID_00000041296213270360218730000011105309948466075051_">
		<use xlink:href="#SVGID_1_"  style="overflow:visible;"/>
	</clipPath>
	<g style="clip-path:url(#SVGID_00000041296213270360218730000011105309948466075051_);">
		<path d="M27,36.9c0.5-1.2,0.9-2.4,1.4-3.6c1.2-3.2,1.8-6.6,1.5-10c-0.1-2.3-0.3-4.5-0.8-6.8c-0.1-0.3-0.2-0.7-0.3-1
			c-0.5-1.6-1.7-2.4-3.4-2.6c-1.9-0.2-3.7,0.2-5.5,0.7c-0.6,0.2-1.2,0.4-1.9,0.6c0.1-0.3,0.1-0.5,0.2-0.8c0.6-2.5,1.5-4.9,3-7
			c2.1-2.9,4.9-4.6,8.4-5.3c3.1-0.6,6.2-0.4,9.2,0.8c3.1,1.2,5.4,3.4,7.1,6.2c0.9,1.5,1.6,3,2.2,4.7c-0.4,0.1-0.8,0.1-1.2,0.2
			c-2.6,0.5-4,2.3-4.6,4.7c-0.5,1.9-0.2,3.7,0.3,5.6c0.7,3,1.9,5.7,3.3,8.4c0.8,1.5,1.5,3,2.3,4.6c-0.3,0.2-0.6,0.3-0.8,0.5
			c-0.9,0.6-1.9,1.1-2.8,1.8c-1.2,0.8-2,1.9-2.3,3.4c-0.1,0.4-0.1,0.8-0.1,1.2c0,3.8,0,7.6,0,11.4c0,1.8-0.5,3.4-1.8,4.7
			c-1.8,1.8-5.9,2.6-8.1-0.7c-1-1.5-1.5-3.2-1.9-4.9c-0.3-1.5-0.2-2.9-0.2-4.4c0-2.7,0-5.5,0-8.2c0-0.6,0-1.3,0-1.9
			c-0.1-0.8-0.5-1.5-1.3-1.8C28.2,37.3,27.6,37.1,27,36.9z"/>
		<path d="M14.6,45.6c-0.8,0.5-1.6,0.4-2.3,0.2c-1.1-0.3-2.1-1-2.9-1.8c-1.7-1.6-2.8-3.6-3.8-5.6c-1.7-3.5-2.9-7.3-3.8-11.1
			C0.9,24,0.2,20.6,0,17.2c-0.2-2.9,0.1-5.7,1.3-8.4C3,4.9,6,2.5,10,1.4c3.2-0.9,6.4-0.5,9.5,0.4C20,1.9,20.5,2.1,21,2.2
			c0,0.1-0.1,0.1-0.1,0.2c-2.7,2.6-4.3,5.8-5.3,9.4c-0.6,2.2-0.6,4.5-0.4,6.8c0.2,2.6,0.2,5.3-0.1,7.9c-0.3,2.7,0.5,5.2,2.1,7.5
			c0.9,1.4,2.2,2.5,3.7,3.1c0.1,0,0.2,0.1,0.3,0.2c-1.1,0.6-2.1,1.2-3.3,1.5c-1,0.3-2,0.6-2.8,1.2c-2,1.4-2.2,3.8-0.5,5.5
			C14.5,45.5,14.5,45.6,14.6,45.6z"/>
		<path d="M51.6,36.3c-0.6-0.7-1-1.5-1.4-2.3c-0.3-0.7-0.3-1.3-0.1-2c0.5-1.5,0.9-3,1.1-4.5c0.1-1.2,0.1-2.4-0.1-3.6
			c-0.3-1.6-0.1-3.2,0-4.9c0.1-0.7,0-1.5,0-2.2c0-0.8-0.2-1.6-0.1-2.4c0.1-1.8-0.4-3.5-1.2-5.1c-1.5-3.1-3.5-5.9-6.3-7.9
			c-0.1-0.1-0.1-0.1-0.2-0.2C43.7,1,44,1,44.4,1c5.7-0.1,10.5,1.8,14.2,6.3c1,1.2,1.4,2.6,1.4,4c0.1,6.4-0.9,12.5-3.6,18.3
			c-1.1,2.3-2.5,4.5-4.3,6.3c-0.1,0.1-0.2,0.2-0.3,0.3C51.7,36.3,51.6,36.3,51.6,36.3z"/>
		<path d="M26.4,18c-1-0.5-2-0.7-3-0.5c-0.2,0-0.5,0.1-0.6,0.3c-0.1,0.1-0.3,0.4-0.2,0.5c0.1,1.1,1.6,2.3,2.7,2.1
			c0.5-0.1,0.9-0.4,1.3-0.6c1,5.3,0.4,10.5-2.2,15.5c-0.9-0.2-1.8-0.5-2.6-1c-2.1-1.2-3.2-3.1-3.7-5.3c-0.3-1.1-0.1-2.2,0-3.3
			c0.3-2.5,0.2-5-0.1-7.5c0-0.4,0.1-0.5,0.4-0.7c1.7-0.7,3.4-1.2,5.2-1.4c0.6-0.1,1.2,0,1.7,0.1c0.1,0,0.2,0,0.3,0.1
			c0.1,0.1,0.2,0.2,0.2,0.3C26.1,17,26.2,17.4,26.4,18z"/>
		<path d="M27,41.7c0,0.4,0,0.9,0,1.3c0,0.2-0.1,0.4-0.3,0.5c-1.2,0.9-2.5,1.2-3.9,1.2c-1.2,0-2.4-0.2-3.6-0.4
			c-0.6-0.1-1.2-0.2-1.7-0.4c-0.3-0.1-0.6-0.3-0.8-0.5c-0.4-0.3-0.4-0.7,0-1c0.4-0.3,0.8-0.5,1.2-0.6c0.9-0.3,1.8-0.6,2.7-0.9
			c0.9-0.4,1.8-0.9,2.7-1.4c0.2-0.1,0.5-0.1,0.7-0.1c0.9,0.2,1.9,0.4,2.8,0.6c0.3,0.1,0.4,0.2,0.4,0.5C27,40.9,27.1,41.3,27,41.7
			L27,41.7z"/>
		<path d="M45,44.8c0-0.7,0-1.2,0-1.8c0.1-0.6,0.4-1.2,0.9-1.5c0.5-0.4,1.1-0.8,1.6-1.2c0.6-0.4,1.2-0.7,1.8-1
			c0.1-0.1,0.2-0.1,0.4-0.1c1.3,0.1,2.6-0.2,4-0.4c0.3-0.1,0.6-0.1,0.9,0c0.5,0,0.7,0.4,0.5,0.8c-0.2,0.5-0.5,0.9-0.8,1.3
			c-0.6,0.6-1.2,1.1-1.9,1.6c-1.8,1.1-3.8,1.9-5.9,2.4C46,44.7,45.5,44.7,45,44.8z"/>
		<path d="M45.6,17.4c0.5-1,1.3-1.3,2.4-1.4c0,0.9,0.2,1.8,0.1,2.7c-0.3,2.2-0.2,4.4,0.1,6.7c0.2,1.2,0,2.5-0.4,3.7
			c-1.4-2.7-2.4-5.5-2.8-8.6c0.7-0.1,1.3-0.3,1.8-0.8c0.1-0.1,0.1-0.1,0.2-0.2c0.8-0.9,0.5-1.7-0.6-2C46.1,17.5,45.9,17.4,45.6,17.4
			z"/>
	</g>
</g>
</svg>
