<?xml version="1.0" encoding="utf-8"?>
<!-- Generator: Adobe Illustrator 25.4.1, SVG Export Plug-In . SVG Version: 6.00 Build 0)  -->
<svg version="1.1" id="Layer_1" xmlns="http://www.w3.org/2000/svg" xmlns:xlink="http://www.w3.org/1999/xlink" x="0px" y="0px"
	 viewBox="0 0 50 48" style="enable-background:new 0 0 50 48;" xml:space="preserve">
<style type="text/css">
	.st0{clip-path:url(#SVGID_00000036251997318054453240000003284560886080664452_);}
</style>
<g>
	<defs>
		<rect id="SVGID_1_" y="0.6" width="50" height="47.4"/>
	</defs>
	<clipPath id="SVGID_00000167365766376035626140000010303296146585687458_">
		<use xlink:href="#SVGID_1_"  style="overflow:visible;"/>
	</clipPath>
	<g style="clip-path:url(#SVGID_00000167365766376035626140000010303296146585687458_);">
		<path d="M25,0.6c0.5,0.1,1.1,0.1,1.6,0.3c3.7,0.8,6.3,2.9,8.3,6.1c1.6,2.5,2.4,5.3,2.7,8.2c0,0.3,0.1,0.7,0.1,1.1
			c-1-0.3-1.9-0.6-2.9-0.9c-0.1,0-0.2-0.3-0.3-0.5c-0.5-3.2-1.6-6-3.8-8.5c-1.3-1.5-2.9-2.4-4.9-2.7c-1.8-0.2-3.5,0.2-5.2,0.9
			c-2.7,1-4.3,3.1-5.6,5.5c-1.1,2.1-1.7,4.4-1.9,6.9c-0.3,3.9,0.2,7.6,1.7,11.2c0.4,1,0.9,1.9,1.4,2.8c0.1,0.3,0.3,0.4,0.6,0.3
			c1.8-0.1,3.4,1.2,3.7,2.9c0.3,1.9-0.8,3.6-2.7,4c-1.4,0.3-2.6-0.1-3.5-1.2c-0.9-1.1-1.1-2.3-0.5-3.6c0.1-0.3,0.1-0.5-0.1-0.7
			c-1.6-2.8-2.7-5.7-3.3-8.8c-1-5.4-0.5-10.6,2.1-15.5c2-3.7,5-6.3,9.2-7.3c0.7-0.2,1.5-0.2,2.2-0.4L25,0.6z"/>
		<path d="M50,36.9c-0.1,0.6-0.2,1.1-0.3,1.7c-0.5,2.9-2.1,5-4.5,6.7c-2.3,1.7-5,2.5-7.8,2.7c-3,0.2-5.9-0.5-8.7-1.7
			c-0.1,0-0.1-0.1-0.2-0.1c0,0,0,0-0.1-0.1c0.9-0.7,1.7-1.4,2.6-2.1c0.1-0.1,0.3-0.1,0.4,0c1.7,0.7,3.5,1.1,5.3,1.2
			c5.8,0.4,9.5-3.7,10.2-7.8c0.3-1.5,0-3-0.5-4.5c-1.2-3.5-3.4-6.2-6.4-8.3c-3.4-2.4-7.2-3.9-11.4-4.4c-1.2-0.1-2.4-0.1-3.6-0.1
			c-0.3,0-0.4,0.2-0.5,0.4c-1.4,2.4-4.7,2.3-6.1-0.1c-0.9-1.6-0.4-3.7,1.2-4.7c1.6-1,3.7-0.6,4.7,0.9c0.2,0.3,0.5,0.4,0.8,0.4
			c4.8,0,9.3,0.9,13.5,3.1c3.8,2,6.9,4.8,9.1,8.5c1.2,2,1.9,4.2,2,6.5c0,0.2,0.1,0.3,0.1,0.4L50,36.9z"/>
		<path d="M0,35.1c0.1-0.8,0.2-1.5,0.4-2.3c0.7-3.3,2.5-6.1,4.9-8.4c0.6-0.6,1.3-1.1,2-1.7c0.3,1.1,0.6,2,0.8,3
			c0,0.1-0.2,0.4-0.3,0.5c-1.7,1.4-3.2,3.2-4.1,5.2c-1.7,3.8-1,8,1.9,10.8c1.5,1.4,3.2,2.1,5.2,2.4c3.9,0.5,7.5-0.3,10.9-2.2
			c3.5-1.9,6.6-4.4,8.9-7.8c0.3-0.5,0.6-1.1,1-1.6c0.2-0.3,0.1-0.5-0.1-0.7c-1.6-2.1-0.5-5.1,2.1-5.6c1.8-0.4,3.7,0.8,4.1,2.6
			c0.4,1.9-0.7,3.8-2.5,4.2c-0.2,0-0.3,0.1-0.5,0.2c-0.1,0.1-0.2,0.2-0.3,0.4c-3.7,7.2-9.6,11.4-17.4,13.1c-3.4,0.7-6.7,0.6-9.9-0.7
			C3,44.9,0.8,42,0.2,37.8c-0.1-0.5-0.1-0.9-0.2-1.4L0,35.1z"/>
	</g>
</g>
</svg>
