<?xml version="1.0" encoding="utf-8"?>
<!-- Generator: Adobe Illustrator 25.4.1, SVG Export Plug-In . SVG Version: 6.00 Build 0)  -->
<svg version="1.1" id="Layer_1" xmlns="http://www.w3.org/2000/svg" xmlns:xlink="http://www.w3.org/1999/xlink" x="0px" y="0px"
	 viewBox="0 0 45 55" style="enable-background:new 0 0 45 55;" xml:space="preserve">
<style type="text/css">
	.st0{clip-path:url(#SVGID_00000060030567254756413790000007586174171318250428_);}
</style>
<g>
	<defs>
		<rect id="SVGID_1_" width="45" height="55"/>
	</defs>
	<clipPath id="SVGID_00000040575615109538020090000012367475031402043272_">
		<use xlink:href="#SVGID_1_"  style="overflow:visible;"/>
	</clipPath>
	<g style="clip-path:url(#SVGID_00000040575615109538020090000012367475031402043272_);">
		<path d="M43.1,55h-4.5c-0.4-0.1-0.8-0.1-1.2-0.2c-10.9-0.5-21.8-1-32.7-1.4c-2-0.1-3-1-3-3C1.3,40.1,0.9,29.8,0.5,19.6
			C0.3,14.8,0.1,10.1,0,5.4C0,3.7,1,2.5,2.6,2.4c2.5-0.2,5-0.3,7.6-0.5c6-0.4,12.1-0.8,18.1-1.2c1.7-0.1,3.4-0.2,5.1-0.3v6.9
			c0.9-0.7,1.6-1.2,2.3-1.7c0.5-0.4,0.9-0.4,1.4,0c0.5,0.4,1.1,0.8,1.9,1.4V0.3L40.1,0h3C44.5,0.8,45,2,45,3.5c0,16,0,31.9,0,47.9
			C45,53,44.5,54.2,43.1,55z M23.3,9.9L23.3,9.9c-0.7,0.1-1.3,0.1-2,0.2c-4.4,0.3-7.7,2.8-8.9,6.5c-1.3,4.1-0.1,8.1,3.5,10.8
			c1.3,1,2.7,1.8,4,2.6c1.4,0.9,2.9,1.5,4.1,2.5c0.9,0.7,1.5,1.7,1.9,2.7c0.1,0.3,0.1,0.6,0.1,0.9c0,0.3-0.1,0.6-0.3,0.9
			c-0.1,0.3-0.3,0.5-0.6,0.7c-0.2,0.2-0.5,0.3-0.8,0.4c-2,0.5-3.5-0.4-3.8-2.4c-0.1-0.6-0.1-1.1-0.1-1.7c0.1-0.7-0.3-1.1-0.9-1.2
			c-2.3-0.1-4.6-0.1-6.9,0c-0.3,0-0.8,0.5-0.9,0.8c-0.9,4.1,1.7,8.9,5.8,10.4c3.8,1.4,7.9,1.4,11.7,0c3.9-1.5,6-4.7,6-8.7
			c-0.1-3.3-1.4-6-4.2-7.9c-2.1-1.4-4.4-2.5-6.5-3.8c-1.2-0.7-2.2-1.6-3.1-2.6c-0.7-0.9-0.7-2.1,0-3.1c0.7-1.1,1.9-1.1,3-0.9
			c1.2,0.2,1.6,1.2,1.9,2.2c0.1,0.5,0,1,0.1,1.4c0.1,0.4,0.6,0.9,0.8,0.9c2.3,0,4.5-0.2,6.8-0.4c0.2,0,0.6-0.5,0.6-0.8
			c0.2-2.3-0.5-4.5-1.8-6.4s-3.4-3.2-5.6-3.7C25.9,10.1,24.6,10.1,23.3,9.9z"/>
	</g>
</g>
</svg>
