<?xml version="1.0" encoding="utf-8"?>
<!-- Generator: Adobe Illustrator 25.4.1, SVG Export Plug-In . SVG Version: 6.00 Build 0)  -->
<svg version="1.1" id="Layer_1" xmlns="http://www.w3.org/2000/svg" xmlns:xlink="http://www.w3.org/1999/xlink" x="0px" y="0px"
	 viewBox="0 0 37 37" style="enable-background:new 0 0 37 37;" xml:space="preserve">
<path d="M33.3,4.9c-0.9-0.9-2-1.4-3.3-1.5c-1.2,0-2.4,0.4-3.4,1.2c-0.9-0.8-2.1-1.2-3.4-1.2c-1.2,0-2.4,0.6-3.3,1.5
	c-0.9,0.9-1.4,2.2-1.4,3.5c0,1.3,0.5,2.6,1.4,3.5l6.7,6.8l0,0l0,0l6.7-6.8c0.9-0.9,1.4-2.2,1.4-3.5C34.7,7.1,34.2,5.9,33.3,4.9z
	 M31.6,10.3l-5,5.1l0,0l0,0l-5-5.1c-0.5-0.5-0.8-1.2-0.8-1.9c0-0.7,0.3-1.4,0.8-1.9c0.5-0.5,1.1-0.7,1.8-0.7s1.3,0.3,1.8,0.7
	l1.4,1.4l0,0l0,0L28,6.5c0.5-0.5,1.1-0.7,1.8-0.7c0.7,0,1.3,0.3,1.8,0.7c0.5,0.5,0.8,1.2,0.8,1.9C32.4,9.1,32.1,9.8,31.6,10.3z
	 M18.5,34.7h-2.3v-5.8c0-0.9-0.4-1.8-1-2.5c-0.7-0.7-1.5-1-2.5-1H8.1c-0.9,0-1.8,0.4-2.5,1c-0.7,0.7-1,1.5-1,2.5v5.8H2.3v-5.8
	c0-1.5,0.6-3,1.7-4.1c1.1-1.1,2.6-1.7,4.1-1.7h4.6c1.5,0,3,0.6,4.1,1.7c1.1,1.1,1.7,2.6,1.7,4.1V34.7z M10.4,11.6
	c0.7,0,1.4,0.2,1.9,0.6c0.6,0.4,1,0.9,1.3,1.6c0.3,0.6,0.3,1.3,0.2,2c-0.1,0.7-0.5,1.3-0.9,1.8c-0.5,0.5-1.1,0.8-1.8,0.9
	c-0.7,0.1-1.4,0.1-2-0.2C8.4,18,7.9,17.5,7.5,17c-0.4-0.6-0.6-1.2-0.6-1.9c0-0.9,0.4-1.8,1-2.5C8.6,11.9,9.5,11.6,10.4,11.6z
	 M10.4,9.2c-1.1,0-2.3,0.3-3.2,1c-1,0.6-1.7,1.5-2.1,2.6c-0.4,1.1-0.6,2.2-0.3,3.3c0.2,1.1,0.8,2.2,1.6,3c0.8,0.8,1.8,1.4,3,1.6
	c1.1,0.2,2.3,0.1,3.3-0.3c1.1-0.4,2-1.2,2.6-2.1c0.6-1,1-2.1,1-3.2c0-0.8-0.1-1.5-0.4-2.2c-0.3-0.7-0.7-1.3-1.3-1.9
	c-0.5-0.5-1.2-1-1.9-1.3C11.9,9.4,11.2,9.2,10.4,9.2z"/>
</svg>
