<svg xmlns="http://www.w3.org/2000/svg" xmlns:xlink="http://www.w3.org/1999/xlink" viewBox="0 0 728.23 158.27"><defs><style>.cls-1{fill:#121214;}.cls-2{fill:url(#linear-gradient);}.cls-3{fill:url(#linear-gradient-2);}.cls-4{fill:url(#linear-gradient-3);}.cls-5{fill:url(#linear-gradient-4);}.cls-6{fill:url(#linear-gradient-5);}</style><linearGradient id="linear-gradient" x1="599.84" y1="204.33" x2="741.52" y2="74.27" gradientUnits="userSpaceOnUse"><stop offset="0" stop-color="#11b680"/><stop offset="1" stop-color="#7858e3"/></linearGradient><linearGradient id="linear-gradient-2" x1="571.33" y1="173.28" x2="713.01" y2="43.21" xlink:href="#linear-gradient"/><linearGradient id="linear-gradient-3" x1="0.05" y1="55.47" x2="195.14" y2="39.21" xlink:href="#linear-gradient"/><linearGradient id="linear-gradient-4" x1="4.64" y1="110.59" x2="199.74" y2="94.33" xlink:href="#linear-gradient"/><linearGradient id="linear-gradient-5" x1="551.17" y1="151.32" x2="692.85" y2="21.25" xlink:href="#linear-gradient"/></defs><g id="Layer_2" data-name="Layer 2"><g id="Layer_1-2" data-name="Layer 1"><path class="cls-1" d="M446.25,27V54.25H391.78a27.23,27.23,0,0,0-27.22,27.23H337.33A54.44,54.44,0,0,1,391.78,27Z"/><path class="cls-1" d="M446.25,81.47v27.24H391.78a27.23,27.23,0,0,0-27.22,27.23H337.33a54.44,54.44,0,0,1,54.45-54.47Z"/><path class="cls-1" d="M87.62,27V54.25h54.47a27.23,27.23,0,0,1,27.23,27.23h27.23A54.46,54.46,0,0,0,142.09,27Z"/><path class="cls-1" d="M87.62,81.47v27.24h54.47a27.23,27.23,0,0,1,27.23,27.23h27.23a54.46,54.46,0,0,0-54.46-54.47Z"/><path class="cls-1" d="M212.47,135.93H239.7V81.47s1-27.23,27.24-27.23,27.23,27.23,27.23,27.23v54.46H321.4V81.47S321.4,27,266.94,27s-54.47,54.46-54.47,54.46Z"/><path class="cls-1" d="M462.17,135.93H489.4V81.47s1-27.23,27.23-27.23,27.23,27.23,27.23,27.23v54.46h27.23V81.47S571.09,27,516.63,27s-54.46,54.46-54.46,54.46Z"/><path class="cls-2" d="M728.23,81.48v27.23h0A27.23,27.23,0,0,0,701,135.94H673.76a54.45,54.45,0,0,1,54.46-54.46Z"/><path class="cls-3" d="M673.76,27H701a27.23,27.23,0,0,0,27.23,27.23V81.48A54.15,54.15,0,0,1,701,74.19,54.45,54.45,0,0,1,673.76,27Z"/><path class="cls-4" d="M0,81.48V54.24H0A27.23,27.23,0,0,0,27.24,27H54.46a54.14,54.14,0,0,1-7.28,27.23A54.45,54.45,0,0,1,0,81.48Z"/><path class="cls-5" d="M54.46,135.94H27.23A27.23,27.23,0,0,0,0,108.7V81.48a54.14,54.14,0,0,1,27.23,7.28,54.44,54.44,0,0,1,27.23,47.17Z"/><polygon class="cls-6" points="664.16 0 637.19 0 595.43 158.27 622.4 158.27 664.16 0"/></g></g></svg>